<svg width="44" height="44" viewBox="0 0 44 44" fill="none" xmlns="http://www.w3.org/2000/svg">
<path d="M42.8834 21.9836C42.8834 33.5402 33.5453 42.9068 22.0284 42.9068C10.5116 42.9068 1.1735 33.5402 1.1735 21.9836C1.1735 10.427 10.5116 1.06041 22.0284 1.06041C33.5453 1.06041 42.8834 10.427 42.8834 21.9836Z" fill="#222831" stroke="#EEEEEE" stroke-width="0.674522"/>
<g clip-path="url(#clip0_141_3)">
<path d="M30.4482 21.9295V28.9107C30.4482 29.3736 30.2649 29.8176 29.9387 30.1449C29.6124 30.4722 29.1699 30.6561 28.7085 30.6561H14.7908C14.3294 30.6561 13.8869 30.4722 13.5606 30.1449C13.2344 29.8176 13.0511 29.3736 13.0511 28.9107V21.9295C12.8204 21.9295 12.5991 21.8375 12.436 21.6739C12.2729 21.5102 12.1812 21.2883 12.1812 21.0568V18.4388C12.1812 17.9759 12.3645 17.532 12.6908 17.2047C13.017 16.8774 13.4595 16.6935 13.9209 16.6935H16.6784C16.5801 16.4132 16.5301 16.1181 16.5305 15.8209C16.5305 15.1265 16.8054 14.4606 17.2948 13.9697C17.7842 13.4787 18.448 13.2029 19.1401 13.2029C20.0099 13.2029 20.7754 13.6392 21.2538 14.285V14.2763L21.7496 14.9482L22.2455 14.2763V14.285C22.7239 13.6392 23.4894 13.2029 24.3592 13.2029C25.0513 13.2029 25.7151 13.4787 26.2045 13.9697C26.6939 14.4606 26.9688 15.1265 26.9688 15.8209C26.9692 16.1181 26.9192 16.4132 26.8209 16.6935H29.5784C30.0398 16.6935 30.4823 16.8774 30.8085 17.2047C31.1348 17.532 31.3181 17.9759 31.3181 18.4388V21.0568C31.3181 21.2883 31.2264 21.5102 31.0633 21.6739C30.9002 21.8375 30.6789 21.9295 30.4482 21.9295ZM14.7908 28.9107H20.8798V21.9295H14.7908V28.9107ZM28.7085 28.9107V21.9295H22.6195V28.9107H28.7085ZM19.1401 14.9482C18.9094 14.9482 18.6881 15.0401 18.525 15.2038C18.3619 15.3675 18.2702 15.5894 18.2702 15.8209C18.2702 16.0523 18.3619 16.2743 18.525 16.4379C18.6881 16.6016 18.9094 16.6935 19.1401 16.6935C19.3708 16.6935 19.592 16.6016 19.7552 16.4379C19.9183 16.2743 20.0099 16.0523 20.0099 15.8209C20.0099 15.5894 19.9183 15.3675 19.7552 15.2038C19.592 15.0401 19.3708 14.9482 19.1401 14.9482ZM24.3592 14.9482C24.1285 14.9482 23.9073 15.0401 23.7441 15.2038C23.581 15.3675 23.4894 15.5894 23.4894 15.8209C23.4894 16.0523 23.581 16.2743 23.7441 16.4379C23.9073 16.6016 24.1285 16.6935 24.3592 16.6935C24.5899 16.6935 24.8112 16.6016 24.9743 16.4379C25.1374 16.2743 25.2291 16.0523 25.2291 15.8209C25.2291 15.5894 25.1374 15.3675 24.9743 15.2038C24.8112 15.0401 24.5899 14.9482 24.3592 14.9482ZM13.9209 18.4388V20.1842H20.8798V18.4388H13.9209ZM22.6195 18.4388V20.1842H29.5784V18.4388H22.6195Z" fill="white"/>
</g>
<defs>
<clipPath id="clip0_141_3">
<rect width="20.8766" height="20.9438" fill="white" transform="translate(12.1812 11.4578)"/>
</clipPath>
</defs>
</svg>
