<svg width="43" height="44" viewBox="0 0 43 44" fill="none" xmlns="http://www.w3.org/2000/svg">
<path d="M42.4094 21.9836C42.4094 33.5402 33.0713 42.9068 21.5544 42.9068C10.0376 42.9068 0.699504 33.5402 0.699504 21.9836C0.699504 10.427 10.0376 1.06041 21.5544 1.06041C33.0713 1.06041 42.4094 10.427 42.4094 21.9836Z" fill="#222831" stroke="#EEEEEE" stroke-width="0.674522"/>
<path d="M19.7864 14.4043H15.2407C15.0397 14.4043 14.847 14.4844 14.7049 14.6269C14.5629 14.7695 14.483 14.9628 14.483 15.1644V19.7247C14.483 19.9263 14.5629 20.1196 14.7049 20.2621C14.847 20.4047 15.0397 20.4848 15.2407 20.4848H19.7864C19.9873 20.4848 20.18 20.4047 20.3221 20.2621C20.4642 20.1196 20.544 19.9263 20.544 19.7247V15.1644C20.544 14.9628 20.4642 14.7695 20.3221 14.6269C20.18 14.4844 19.9873 14.4043 19.7864 14.4043ZM19.7864 23.525H15.2407C15.0397 23.525 14.847 23.6051 14.7049 23.7476C14.5629 23.8901 14.483 24.0835 14.483 24.2851V28.8454C14.483 29.047 14.5629 29.2403 14.7049 29.3828C14.847 29.5254 15.0397 29.6055 15.2407 29.6055H19.7864C19.9873 29.6055 20.18 29.5254 20.3221 29.3828C20.4642 29.2403 20.544 29.047 20.544 28.8454V24.2851C20.544 24.0835 20.4642 23.8901 20.3221 23.7476C20.18 23.6051 19.9873 23.525 19.7864 23.525ZM28.8778 14.4043H24.3321C24.1311 14.4043 23.9384 14.4844 23.7963 14.6269C23.6543 14.7695 23.5744 14.9628 23.5744 15.1644V19.7247C23.5744 19.9263 23.6543 20.1196 23.7963 20.2621C23.9384 20.4047 24.1311 20.4848 24.3321 20.4848H28.8778C29.0787 20.4848 29.2714 20.4047 29.4135 20.2621C29.5556 20.1196 29.6354 19.9263 29.6354 19.7247V15.1644C29.6354 14.9628 29.5556 14.7695 29.4135 14.6269C29.2714 14.4844 29.0787 14.4043 28.8778 14.4043Z" stroke="white" stroke-width="1.51767" stroke-linejoin="round"/>
<path d="M23.5745 23.5247H29.6354M26.6049 26.5649H29.6354M23.5745 29.6051H29.6354" stroke="white" stroke-width="1.51767" stroke-linecap="round" stroke-linejoin="round"/>
</svg>
