<svg width="43" height="44" viewBox="0 0 43 44" fill="none" xmlns="http://www.w3.org/2000/svg">
<path d="M42.6204 22.0036C42.6204 33.5602 33.2823 42.9268 21.7654 42.9268C10.2486 42.9268 0.910503 33.5602 0.910503 22.0036C0.910503 10.447 10.2486 1.08042 21.7654 1.08042C33.2823 1.08042 42.6204 10.447 42.6204 22.0036Z" fill="#222831" stroke="#EEEEEE" stroke-width="0.674522"/>
<path d="M16.427 19.204V20.4644L20.2572 17.7197L16.427 15.2495V16.3726C14.8851 16.5145 13.457 17.2472 12.4396 18.4182C11.4222 19.5892 10.8938 21.1086 10.9642 22.6604C11.0347 24.2122 11.6986 25.677 12.8179 26.7504C13.9372 27.8238 15.4258 28.4232 16.9742 28.4238C18.353 28.4238 20.2572 27.9375 21.3515 26.7771C22.7194 25.1928 24.35 21.2032 24.35 21.2032L19.4649 24.3793C19.1354 24.751 18.723 25.0394 18.2613 25.2209C17.7997 25.4025 17.3018 25.4721 16.8082 25.424C16.3147 25.376 15.8395 25.2116 15.4212 24.9444C15.003 24.6772 14.6535 24.3147 14.4014 23.8864C14.1496 23.4576 14.0025 22.9752 13.972 22.4785C13.9415 21.9818 14.0284 21.4849 14.2258 21.0283C14.4232 20.5718 14.7254 20.1685 15.1078 19.8515C15.4901 19.5344 15.9429 19.3126 16.427 19.204Z" fill="white"/>
<path d="M27.3704 25.0182V23.7578L23.5402 26.5025L27.3704 28.9727V27.8496C28.9123 27.7077 30.3404 26.975 31.3578 25.804C32.3752 24.633 32.9036 23.1136 32.8331 21.5618C32.7627 20.01 32.0988 18.5452 30.9795 17.4718C29.8602 16.3984 28.3716 15.799 26.8232 15.7983C25.4444 15.7983 23.5402 16.2847 22.4459 17.4451C21.0779 19.0293 19.4474 23.019 19.4474 23.019L24.3325 19.8429C24.6618 19.4705 25.0742 19.1815 25.536 18.9995C25.9979 18.8175 26.4961 18.7477 26.99 18.7958C27.4838 18.8438 27.9594 19.0084 28.3778 19.276C28.7961 19.5437 29.1455 19.9068 29.3973 20.3357C29.6491 20.7647 29.7961 21.2473 29.8265 21.7441C29.8569 22.241 29.7697 22.738 29.5721 23.1946C29.3744 23.6512 29.0719 24.0544 28.6893 24.3714C28.3066 24.6883 27.8547 24.9099 27.3704 25.0182Z" fill="white"/>
</svg>
