<svg width="44" height="44" viewBox="0 0 44 44" fill="none" xmlns="http://www.w3.org/2000/svg">
<path d="M42.9877 21.9836C42.9877 33.5402 33.6496 42.9068 22.1327 42.9068C10.6159 42.9068 1.27781 33.5402 1.27781 21.9836C1.27781 10.427 10.6159 1.06041 22.1327 1.06041C33.6496 1.06041 42.9877 10.427 42.9877 21.9836Z" fill="#222831" stroke="#EEEEEE" stroke-width="0.674522"/>
<path d="M20.565 14.01H24.3812C27.9788 14.01 29.7782 14.01 30.8953 15.1317C31.7005 15.9386 31.9257 17.1005 31.9887 19.0348H12.9575C13.0205 17.1005 13.2456 15.9386 14.0508 15.1317C15.168 14.01 16.9673 14.01 20.565 14.01Z" fill="white"/>
<path fill-rule="evenodd" clip-rule="evenodd" d="M32.0136 22.45L31.6234 22.0585C31.4241 21.8586 31.1874 21.6999 30.927 21.5917C30.6666 21.4835 30.3874 21.4278 30.1055 21.4278C29.8236 21.4278 29.5445 21.4835 29.2841 21.5917C29.0236 21.6999 28.787 21.8586 28.5877 22.0585L27.8235 22.8252C27.6465 22.3531 27.3101 21.9582 26.8728 21.7094C26.4355 21.4605 25.925 21.3735 25.4303 21.4635C24.9356 21.5535 24.488 21.8147 24.1656 22.2017C23.8431 22.5887 23.6663 23.0769 23.6658 23.5813V25.2697C23.2641 25.3147 22.8832 25.4727 22.567 25.7253C22.2508 25.9779 22.0122 26.315 21.8785 26.6977C21.7449 27.0804 21.7216 27.4931 21.8115 27.8885C21.9013 28.2839 22.1006 28.6458 22.3864 28.9325L22.7766 29.324H20.5652C16.9675 29.324 15.1682 29.324 14.051 28.2022C12.9338 27.0805 12.9329 25.2764 12.9329 21.6671C12.9329 21.2447 12.9335 20.8459 12.9348 20.4707H32.0117C32.013 20.8459 32.0136 21.2447 32.0136 21.6671V22.45ZM16.749 24.7777C16.5592 24.7777 16.3772 24.8533 16.2431 24.9879C16.1089 25.1226 16.0335 25.3052 16.0335 25.4955C16.0335 25.6859 16.1089 25.8685 16.2431 26.0031C16.3772 26.1377 16.5592 26.2134 16.749 26.2134H20.5652C20.7549 26.2134 20.9369 26.1377 21.0711 26.0031C21.2053 25.8685 21.2807 25.6859 21.2807 25.4955C21.2807 25.3052 21.2053 25.1226 21.0711 24.9879C20.9369 24.8533 20.7549 24.7777 20.5652 24.7777H16.749Z" fill="white"/>
<path fill-rule="evenodd" clip-rule="evenodd" d="M25.8124 22.8633C26.0021 22.8633 26.1841 22.9389 26.3183 23.0735C26.4525 23.2081 26.5279 23.3907 26.5279 23.5811V27.5914L27.2148 26.9023C27.2803 26.8318 27.3593 26.7752 27.4471 26.736C27.5348 26.6967 27.6296 26.6756 27.7257 26.6739C27.8217 26.6722 27.9172 26.69 28.0063 26.7261C28.0953 26.7622 28.1763 26.8159 28.2442 26.8841C28.3122 26.9522 28.3657 27.0334 28.4017 27.1228C28.4377 27.2122 28.4554 27.3079 28.4537 27.4043C28.452 27.5007 28.431 27.5957 28.3919 27.6838C28.3528 27.7719 28.2964 27.8511 28.2261 27.9168L26.318 29.831C26.1838 29.9655 26.002 30.041 25.8124 30.041C25.6227 30.041 25.4409 29.9655 25.3067 29.831L23.3986 27.9168C23.3283 27.8511 23.2719 27.7719 23.2328 27.6838C23.1937 27.5957 23.1727 27.5007 23.171 27.4043C23.1693 27.3079 23.187 27.2122 23.223 27.1228C23.259 27.0334 23.3125 26.9522 23.3805 26.8841C23.4484 26.8159 23.5294 26.7622 23.6184 26.7261C23.7075 26.69 23.803 26.6722 23.899 26.6739C23.9951 26.6756 24.0899 26.6967 24.1776 26.736C24.2654 26.7752 24.3444 26.8318 24.4099 26.9023L25.0968 27.5914V23.5811C25.0968 23.3907 25.1722 23.2081 25.3064 23.0735C25.4406 22.9389 25.6226 22.8633 25.8124 22.8633ZM29.5999 23.0738C29.734 22.9394 29.9159 22.8639 30.1055 22.8639C30.2951 22.8639 30.477 22.9394 30.6112 23.0738L32.5192 24.9881C32.5895 25.0538 32.6459 25.133 32.685 25.2211C32.7241 25.3091 32.7452 25.4042 32.7469 25.5006C32.7486 25.597 32.7309 25.6927 32.6949 25.7821C32.6589 25.8715 32.6053 25.9527 32.5374 26.0208C32.4694 26.089 32.3885 26.1427 32.2994 26.1788C32.2103 26.2149 32.1149 26.2327 32.0188 26.231C31.9227 26.2293 31.828 26.2082 31.7402 26.1689C31.6525 26.1297 31.5735 26.0731 31.508 26.0026L30.821 25.3135V29.3238C30.821 29.5142 30.7457 29.6967 30.6115 29.8314C30.4773 29.966 30.2953 30.0416 30.1055 30.0416C29.9157 30.0416 29.7338 29.966 29.5996 29.8314C29.4654 29.6967 29.39 29.5142 29.39 29.3238V25.3135L28.7031 26.0026C28.6376 26.0731 28.5586 26.1297 28.4708 26.1689C28.383 26.2082 28.2883 26.2293 28.1922 26.231C28.0961 26.2327 28.0007 26.2149 27.9116 26.1788C27.8225 26.1427 27.7416 26.089 27.6736 26.0208C27.6057 25.9527 27.5521 25.8715 27.5161 25.7821C27.4802 25.6927 27.4625 25.597 27.4642 25.5006C27.4659 25.4042 27.4869 25.3091 27.526 25.2211C27.5651 25.133 27.6215 25.0538 27.6918 24.9881L29.5999 23.0738Z" fill="white"/>
</svg>
